# xmcd
#
# Track frame offsets:
#	182
#	13435
#	28387
#	42605
#
# Disc length: 750 seconds
#
# Revision: 0
# Processed by: cddbd v1.5.2PL0 Copyright (c) Steve Scherf et al.
# Submitted via: dBpowerAMP V4.0
#
DISCID=3802ec04
DTITLE=Family Gotown - Innocence and Experience EP
DYEAR=1993
DGENRE=Indie Rock
TTITLE0=Maybe Tomorrow
TTITLE1=Make It Happen
TTITLE2=Friends
TTITLE3=Go Rae Me
EXTD=
EXTT0=
EXTT1=
EXTT2=
EXTT3=
PLAYORDER=
